PathFileType	4	(X/Y/Z)	C:\Users\Basilio\Documents\Thesis Gigler\squatting_fais\c3dfiles\075\SJ_pre1\markers_experimental.trc
DataRate	CameraRate	NumFrames	NumMarkers	Units	OrigDataRate	OrigDataStartFrame	OrigNumFrames
200.000000	200.000000	4	61	mm	200.000000	821	1642
Frame#	Time	FHD			LBHD			C7			T10			CLAV			LSHO			LUUPA			LMUPA			LDUPA			LLEP			LMEP			LRAD			LUL			LRFIN			RSHO			RUPA1			RMUPA			RDUPA			RLEP			RMEP			RRAD			RUL			RUFIN			LASI			RASI			USACR			LSACR			RSACR			LTHI1			LTHI2			LTHI3			LTHI4			LLFC			LMFC			LTIB1			LTIB2			LTIB3			LTIB4			LLMAL			LMMAL			LHEE			LMT1			LMT2			LMT5			RTHI			RTHI2			RTHI3			RTHI4			RLFC			RMFC			RTIB1			RTIB2			RTIB3			RTIB4			RLMAL			RMMAL			RHEE			RMT1			RMT2			RMT5			RBHD			
		X1	Y1	Z1	X2	Y2	Z2	X3	Y3	Z3	X4	Y4	Z4	X5	Y5	Z5	X6	Y6	Z6	X7	Y7	Z7	X8	Y8	Z8	X9	Y9	Z9	X10	Y10	Z10	X11	Y11	Z11	X12	Y12	Z12	X13	Y13	Z13	X14	Y14	Z14	X15	Y15	Z15	X16	Y16	Z16	X17	Y17	Z17	X18	Y18	Z18	X19	Y19	Z19	X20	Y20	Z20	X21	Y21	Z21	X22	Y22	Z22	X23	Y23	Z23	X24	Y24	Z24	X25	Y25	Z25	X26	Y26	Z26	X27	Y27	Z27	X28	Y28	Z28	X29	Y29	Z29	X30	Y30	Z30	X31	Y31	Z31	X32	Y32	Z32	X33	Y33	Z33	X34	Y34	Z34	X35	Y35	Z35	X36	Y36	Z36	X37	Y37	Z37	X38	Y38	Z38	X39	Y39	Z39	X40	Y40	Z40	X41	Y41	Z41	X42	Y42	Z42	X43	Y43	Z43	X44	Y44	Z44	X45	Y45	Z45	X46	Y46	Z46	X47	Y47	Z47	X48	Y48	Z48	X49	Y49	Z49	X50	Y50	Z50	X51	Y51	Z51	X52	Y52	Z52	X53	Y53	Z53	X54	Y54	Z54	X55	Y55	Z55	X56	Y56	Z56	X57	Y57	Z57	X58	Y58	Z58	X59	Y59	Z59	X60	Y60	Z60	X61	Y61	Z61	

822	4.105	62.10605239868165	1199.903198242188	-892.3430786132815	-104.8050918579102	1113.721801757813	-964.747009277344	-170.2861480712891	1046.472534179688	-908.9660644531252	-396.6418457031251	827.526794433594	-905.8868408203127	-81.93389129638673	915.754821777344	-904.664978027344	-78.26109313964845	966.949157714844	-1056.966796875	-179.5205993652344	878.7702636718752	-1236.24267578125	-184.50439453125	830.555847167969	-1223.596801757813	-214.0563049316407	832.5665283203127	-1277.082763671875	-271.3515625000001	768.1701660156252	-1302.083618164063	-336.9981994628907	827.6790161132815	-1277.754272460938	-426.8600463867189	671.2399902343751	-1125.238525390625	-400.5330505371095	607.5098266601564	-1157.401123046875	-393.3950500488282	658.3040161132814	-1071.138671875	-87.08229827880861	970.525329589844	-751.1808471679689	-196.749740600586	900.0809326171877	-579.2440185546876	-205.9666442871094	850.413757324219	-582.8596801757814	-239.3467102050782	864.767517089844	-534.2072143554689	-286.8497924804688	814.8642578125002	-504.3774414062501	-362.8512573242188	852.4119873046877	-523.4316406250001	-416.283905029297	676.4655151367189	-694.7914428710939	-382.0673828125001	623.5447998046876	-652.3561401367189	-371.8021545410157	666.9293823242189	-745.3389282226564	-384.7252502441407	606.3214111328126	-1021.477905273438	-370.9204711914063	624.2919311523439	-785.1202392578127	-479.687469482422	746.2749023437501	-905.7815551757815	-506.0030822753907	725.5333862304689	-931.1107177734377	-504.1713256835939	727.7101440429689	-874.608337402344	-363.2974548339844	530.1018676757814	-1125.12353515625	-282.3238830566407	515.7918090820314	-1136.585205078125	-259.2666931152344	551.0823974609376	-1109.332641601563	-251.7981414794922	465.4569702148439	-1148.334594726563	-172.8983306884766	405.8471679687501	-1144.603759765625	-130.330307006836	394.7365722656251	-1024.28271484375	-148.0795593261719	280.0165405273438	-1105.269287109375	-224.5540313720704	268.2048645019532	-1150.629150390625	-192.5076904296876	246.8525390625001	-1128.154296875	-233.4183044433594	185.3382568359375	-1094.380493164063	-373.0308532714844	92.77928924560548	-1101.251342773438	-330.3109741210938	99.94898223876956	-1020.056274414063	-427.2507324218751	51.0716896057129	-1047.498657226563	-214.6421051025391	51.63976669311525	-1064.736450195313	-222.5781402587891	57.07330322265626	-1113.46435546875	-268.5521240234376	42.24862289428712	-1159.637939453125	-394.0303649902345	550.8359985351564	-685.6412353515626	-329.1968078613282	555.1431884765626	-684.4866333007814	-317.1514892578126	581.1167602539064	-705.4963378906251	-275.7103881835938	492.1510009765626	-671.3062744140626	-164.955307006836	405.5654907226564	-684.7675170898439	-132.010238647461	397.9370727539064	-803.9412231445315	-159.6139221191407	265.2423400878907	-749.4794311523439	-245.0975036621094	223.0869598388672	-693.0581054687501	-217.5095977783204	203.8880767822266	-726.3961181640626	-244.4423828125001	170.1674194335938	-765.5886230468751	-364.2149963378907	92.13058471679689	-729.5208740234376	-324.4480285644532	105.0298156738282	-810.787536621094	-419.1666259765626	52.25613403320314	-786.6912231445315	-208.1124725341797	57.48092269897462	-759.9288940429689	-216.6843872070313	58.3502540588379	-718.8252563476564	-258.1758117675782	36.33211898803712	-670.6958007812501	-57.67655181884767	1133.21826171875	-810.5508422851565	
823	4.11	62.03752517700197	1200.029663085938	-892.4295654296877	-104.7610321044922	1113.784912109375	-964.7901611328127	-170.4262390136719	1046.66845703125	-909.1582641601565	-396.721405029297	827.6157836914065	-906.020935058594	-81.70796966552736	916.0853271484377	-904.4685668945315	-78.48354339599611	967.3175048828127	-1057.042358398438	-179.5615844726563	878.9515380859377	-1236.390014648438	-184.4759216308594	830.6672973632815	-1223.682739257813	-214.0272369384766	832.7200927734377	-1277.251342773438	-271.2177734375001	768.1927490234377	-1302.145751953125	-336.9804992675782	827.843444824219	-1277.908325195313	-426.8458557128907	671.3346557617189	-1125.321655273438	-400.5741271972657	607.6914062500001	-1157.509887695313	-393.4182434082032	658.3909912109376	-1071.232421875	-87.17881011962892	970.8798828125002	-751.2956542968751	-196.9281005859376	900.3431396484377	-579.3610839843751	-206.0347137451172	850.673767089844	-583.0159301757814	-239.4774169921876	865.0942382812502	-534.3036499023439	-286.9433288574219	815.121765136719	-504.5437011718751	-362.9351501464844	852.6573486328127	-523.4995727539064	-416.3148803710939	676.5901489257814	-694.8864135742189	-382.1326599121094	623.7917480468751	-652.4243774414064	-371.7800292968751	667.0106201171876	-745.3176269531251	-384.8873291015626	606.2838745117189	-1021.603393554688	-371.1519165039063	624.1727294921876	-785.218688964844	-479.7483215332032	746.3353881835939	-905.888610839844	-506.0811767578126	725.6144409179689	-931.2734985351565	-504.2564697265626	727.7927246093751	-874.7634887695315	-363.2875976562501	530.1494140625001	-1125.226928710938	-282.3472900390626	515.8511352539064	-1136.686767578125	-259.2435607910157	551.1437988281251	-1109.446655273438	-251.9515533447266	465.5257568359376	-1148.46142578125	-173.0888671875	405.8641662597657	-1144.744873046875	-130.3661651611328	394.7570190429689	-1024.35107421875	-148.1209411621094	280.0288391113282	-1105.330200195313	-224.5915985107422	268.2091369628907	-1150.63427734375	-192.5363311767579	246.7272338867188	-1128.181030273438	-233.3754577636719	185.3446350097657	-1094.359619140625	-373.0454406738282	92.77285003662111	-1101.245971679688	-330.3439941406251	99.98300933837893	-1020.076965332031	-427.2589111328126	51.07899093627931	-1047.501953125	-214.600814819336	51.59435653686525	-1064.73876953125	-222.5930786132813	57.04460906982423	-1113.468627929688	-268.5354309082032	42.26826095581055	-1159.647216796875	-394.122283935547	550.9732055664064	-685.7578735351564	-329.3203430175782	555.2279052734376	-684.5893554687501	-317.1953125000001	581.2332153320314	-705.5920410156251	-275.7321777343751	492.3044433593751	-671.2822265625001	-165.0267333984375	405.6499328613282	-684.7396850585939	-132.1646118164063	397.9077148437501	-803.9796142578127	-159.7132568359375	265.2892761230469	-749.4719848632814	-245.1562042236329	223.1512603759766	-693.0666503906251	-217.6107940673829	203.9314117431641	-726.3631591796876	-244.5506134033204	170.2263641357422	-765.5979003906251	-364.2319946289063	92.1013870239258	-729.5118408203126	-324.4522705078126	105.011703491211	-810.7976074218752	-419.1522216796876	52.23921966552736	-786.6810302734377	-208.1091461181641	57.45194244384767	-759.9447631835939	-216.6970520019532	58.30725097656251	-718.7929687500001	-258.1632385253907	36.3198356628418	-670.7008666992189	-57.98224258422853	1133.48681640625	-810.649841308594	
824	4.115	61.8182716369629	1200.268310546875	-892.4971313476565	-104.8161315917969	1114.156372070313	-965.1948242187502	-170.6316680908203	1046.869995117188	-909.3836669921877	-396.7757873535157	827.7348632812502	-906.1761474609377	-82.1245803833008	916.4255371093752	-904.7202758789065	-78.5285110473633	967.5219726562502	-1057.11865234375	-179.5307159423828	879.1485595703127	-1236.530883789063	-184.6125030517578	830.8626098632815	-1223.8212890625	-213.9492340087891	832.7969360351565	-1277.329833984375	-271.2221374511719	768.3100585937502	-1302.176879882813	-336.9998474121094	827.9835205078127	-1278.063598632813	-426.7220764160157	671.4818115234376	-1125.440551757813	-400.611785888672	607.8300781250001	-1157.674438476563	-393.4914550781251	658.6143188476564	-1071.402099609375	-87.2475051879883	971.0154418945315	-751.4454956054689	-197.1136932373047	900.6443481445315	-579.5402832031251	-205.9521179199219	851.0025024414065	-582.6436157226564	-239.5965881347657	865.4109497070315	-534.4190063476564	-287.1275939941407	815.4056396484377	-504.7297363281251	-363.0964965820313	852.8394775390627	-523.6965332031251	-416.4172363281251	676.7261962890626	-695.0167236328126	-382.1702880859376	623.9098510742189	-652.5075073242189	-371.8091125488282	667.1538085937501	-745.3847045898439	-387.9890747070314	605.1296386718751	-1023.1240234375	-371.8284912109376	622.0278930664064	-786.8039550781252	-479.2753906250001	746.5374755859376	-906.2656860351565	-506.5276184082032	726.0374145507814	-931.1777954101565	-504.2749023437501	727.9219970703126	-874.8504638671877	-363.3149414062501	530.2479858398439	-1125.276123046875	-282.2598571777344	515.9055175781251	-1136.818481445313	-259.2919921875001	551.1554565429689	-1109.628662109375	-251.9673461914063	465.5553283691407	-1148.547729492188	-172.9483947753907	405.8484497070314	-1144.87890625	-130.3905487060547	394.8107299804689	-1024.453247070313	-148.1762390136719	280.0461730957032	-1105.3388671875	-224.6414337158204	268.2048645019532	-1150.674682617188	-192.4863891601563	246.8888854980469	-1128.27197265625	-233.5504913330079	185.3910827636719	-1094.5107421875	-372.4547729492188	92.52488708496095	-1101.21728515625	-330.3357543945313	99.98081970214847	-1020.095642089844	-427.2287597656251	51.11487960815431	-1047.545776367188	-214.6331787109376	51.63465499877931	-1064.768310546875	-222.5544738769532	57.03402709960939	-1113.447509765625	-268.5196533203126	42.22904586791993	-1159.68359375	-394.2030029296876	551.0521850585939	-685.8526000976564	-329.3937683105469	555.3504638671876	-684.6620483398439	-317.2615966796876	581.3724365234376	-705.7134399414064	-275.7993774414063	492.4154663085939	-671.3197021484376	-165.1380004882813	405.7465820312501	-684.8234863281251	-132.1385650634766	397.9326477050782	-804.028747558594	-159.8128662109375	265.3150939941407	-749.4919433593751	-245.2147064208985	223.2247161865235	-693.0422363281251	-217.6105194091797	203.9817962646485	-726.3735351562501	-244.5797424316407	170.2447662353516	-765.5894775390626	-364.2489318847657	92.12432861328126	-729.5225219726564	-324.4919738769532	105.0365982055664	-810.7903442382815	-419.2122497558595	52.24879837036134	-786.6976318359377	-208.0830688476563	57.49572372436525	-759.9132690429689	-216.7249450683594	58.3293800354004	-718.8388671875001	-258.1818847656251	36.3349838256836	-670.6987304687501	-58.19313430786134	1133.756958007813	-810.872985839844	
825	4.12	61.65431976318361	1200.537353515625	-892.5439453125002	-104.984130859375	1114.443359375	-965.0825805664065	-170.8042297363282	1047.143920898438	-909.4394531250002	-396.9280395507814	827.9365844726565	-906.2486572265627	-82.16345214843751	916.6694946289065	-904.774597167969	-78.67427825927736	967.7143554687502	-1057.263671875	-179.5397033691407	879.2697753906252	-1236.653686523438	-184.7599487304688	831.099304199219	-1223.940063476563	-214.1402893066407	832.9996337890627	-1277.471923828125	-271.2426757812501	768.4942016601565	-1302.35400390625	-336.9854125976563	828.0528564453127	-1278.15478515625	-426.811004638672	671.6281738281251	-1125.542724609375	-400.4997863769532	607.8817749023439	-1157.756225585938	-393.6268005371095	658.7730712890626	-1071.480712890625	-87.50783538818361	971.5711669921877	-751.5292358398439	-197.2730865478516	900.9421386718752	-579.6563110351564	-206.1096801757813	851.280212402344	-582.7538452148439	-239.7412872314454	865.7039794921877	-534.5299072265626	-287.2864074707032	815.6466064453127	-504.7976074218751	-363.2864990234376	853.0078125000002	-523.7953491210939	-416.4502868652345	676.9333496093751	-695.1762695312501	-382.2496948242188	624.0436401367189	-652.6132812500001	-371.7289123535157	667.2320556640626	-745.5032958984376	-385.0939025878907	606.4962158203126	-1021.9287109375	-371.1836853027344	624.3298339843751	-785.5164184570315	-479.8855895996095	746.5736694335939	-906.132263183594	-506.171844482422	725.8976440429689	-931.5417480468752	-504.324188232422	728.0705566406251	-874.9636230468752	-363.4233398437501	530.2890625000001	-1125.433349609375	-282.4070739746094	516.0127563476564	-1136.865844726563	-259.2830200195313	551.1553955078126	-1109.723876953125	-252.0864257812501	465.651092529297	-1148.7099609375	-173.0684661865235	405.8670959472657	-1144.953857421875	-130.5039978027344	394.7967224121095	-1024.539184570313	-148.2424011230469	280.0939941406251	-1105.43017578125	-224.7197723388672	268.2175292968751	-1150.72119140625	-192.5149383544922	246.8210906982422	-1128.31689453125	-233.4293212890626	185.4371490478516	-1094.469116210938	-372.4242858886719	92.51020812988283	-1101.238037109375	-330.3395385742188	99.98294067382815	-1020.162231445313	-427.2130432128907	51.14259719848634	-1047.523559570313	-214.6201324462891	51.69229888916017	-1064.765502929688	-222.5462799072266	57.05173492431642	-1113.439819335938	-268.4693603515626	42.21758651733399	-1159.677001953125	-394.2805786132814	551.1640625000001	-685.9981079101564	-329.5346374511719	555.4645996093751	-684.7674560546876	-317.2855834960938	581.4709472656251	-705.8092041015626	-275.8741760253907	492.5740661621095	-671.3441162109376	-165.1974182128907	405.813690185547	-684.8369140625001	-132.3056182861328	398.0324707031251	-803.9841308593752	-159.8746948242188	265.3574523925782	-749.5087890625001	-245.2901916503907	223.248275756836	-693.0692749023439	-217.7245635986329	204.0135803222657	-726.4136352539064	-244.6209106445313	170.3067779541016	-765.5845336914064	-364.3002319335938	92.1213836669922	-729.4859619140626	-324.5401000976563	105.0234985351563	-810.7681274414065	-419.152069091797	52.2905960083008	-786.6831054687502	-208.0604248046876	57.48310852050783	-759.8935546875001	-216.746810913086	58.27764892578126	-718.8724365234376	-258.1587524414063	36.34256744384766	-670.7131347656251	-58.76899719238283	1133.607543945313	-811.320007324219	
